<svg width="24" height="24" viewBox="0 0 24 24" fill="none" xmlns="http://www.w3.org/2000/svg">
<g opacity="0.65">
<path fill-rule="evenodd" clip-rule="evenodd" d="M18 24C19.657 24 21 22.657 21 21C21 19.6359 20.0906 18.4852 18.8438 18.1195V14.4469L18.8508 14.4398L12.8438 8.43281V5.88047C14.0906 5.51484 15 4.36406 15 3C15 1.34297 13.657 0 12 0C10.343 0 9 1.34297 9 3C9 4.36406 9.90938 5.51484 11.1562 5.88047V8.42109L5.1375 14.4398L5.14453 14.4469V18.1242C3.90469 18.4922 3 19.6406 3 21C3 22.657 4.34297 24 6 24C7.65703 24 9 22.657 9 21C9 19.6312 8.08359 18.4781 6.83203 18.1172V15.1313L11.993 9.97031L17.1562 15.1313V18.1195C15.9094 18.4852 15 19.6359 15 21C15 22.657 16.343 24 18 24ZM6 22.3125C5.27578 22.3125 4.6875 21.7242 4.6875 21C4.6875 20.2758 5.27578 19.6875 6 19.6875C6.72422 19.6875 7.3125 20.2758 7.3125 21C7.3125 21.7242 6.72422 22.3125 6 22.3125ZM13.3125 3C13.3125 2.27578 12.7242 1.6875 12 1.6875C11.2758 1.6875 10.6875 2.27578 10.6875 3C10.6875 3.72422 11.2758 4.3125 12 4.3125C12.7242 4.3125 13.3125 3.72422 13.3125 3ZM16.6875 21C16.6875 20.2758 17.2758 19.6875 18 19.6875C18.7242 19.6875 19.3125 20.2758 19.3125 21C19.3125 21.7242 18.7242 22.3125 18 22.3125C17.2758 22.3125 16.6875 21.7242 16.6875 21Z" fill="#1890FF"/>
</g>
</svg>
