<svg width="25" height="25" viewBox="0 0 25 25" fill="none" xmlns="http://www.w3.org/2000/svg">
<mask id="mask0_747_655" style="mask-type:alpha" maskUnits="userSpaceOnUse" x="0" y="0" width="25" height="25">
<path fill-rule="evenodd" clip-rule="evenodd" d="M22.4958 6.31132L22.3307 9.27728L23.957 11.753C24.0671 11.9199 24.0671 12.1364 23.957 12.3032L22.3207 14.779L22.4859 17.7449C22.4952 17.9436 22.3875 18.1292 22.2106 18.2201L19.5684 19.5555L18.2323 22.1963C18.143 22.3747 17.9561 22.4829 17.7569 22.4714L14.7894 22.3063L12.3123 23.9418C12.1464 24.0553 11.9278 24.0553 11.7619 23.9418L9.28481 22.3063L6.3173 22.4714C6.1185 22.4808 5.9326 22.3733 5.8419 22.1963L4.50583 19.5555L1.86358 18.2201C1.68492 18.131 1.57682 17.944 1.58835 17.7449L1.75353 14.779L0.12209 12.2983C0.0120376 12.1313 0.0120376 11.915 0.12209 11.7482L1.75842 9.2724L1.59343 6.30644C1.58405 6.10774 1.69156 5.92195 1.86866 5.83129L4.51071 4.49592L5.84698 1.85506C5.93612 1.67649 6.12299 1.56825 6.32238 1.57998L9.2897 1.74507L11.7668 0.109405C11.9339 -0.000589866 12.1503 -0.000589866 12.3172 0.109405L14.7943 1.74507L17.7669 1.58486C17.9655 1.57548 18.1514 1.68313 18.2423 1.85995L19.5784 4.5008L22.2206 5.83618C22.3991 5.92527 22.5074 6.11224 22.4958 6.31132ZM21.3199 14.6741C21.3105 14.566 21.3388 14.4584 21.3998 14.3689L22.9462 12.0281L21.3998 9.68737C21.3439 9.59574 21.3159 9.48965 21.3199 9.38239L21.4749 6.57644L18.9779 5.31609C18.8827 5.26842 18.8054 5.19125 18.7578 5.0961L17.4965 2.60021L14.6893 2.75534C14.5814 2.76472 14.4735 2.73639 14.384 2.67524L12.042 1.12984L9.7002 2.67524C9.60832 2.73131 9.50218 2.75905 9.39487 2.75534L6.58744 2.60021L5.32643 5.0961C5.27874 5.19125 5.20152 5.26842 5.10633 5.31609L2.60913 6.57644L2.76433 9.38239C2.77372 9.49024 2.74537 9.59808 2.68419 9.68737L1.13798 12.0281L2.68419 14.3689C2.74029 14.4605 2.76824 14.5666 2.76433 14.6741L2.60913 17.4798L5.11121 18.7353C5.2066 18.783 5.28382 18.8601 5.33151 18.9553L6.59253 21.4512L9.39995 21.296H9.42497C9.5231 21.2964 9.61888 21.3261 9.7002 21.381L12.042 22.9266L14.384 21.381C14.4757 21.325 14.5818 21.2972 14.6893 21.3011L17.4965 21.456L18.7578 18.9604C18.8054 18.8652 18.8827 18.7878 18.9779 18.7402L21.4749 17.4798L21.3199 14.6741ZM12.0421 4.5559C7.91877 4.5559 4.56597 7.90694 4.56597 12.0281C4.56597 16.1495 7.91877 19.5006 12.0421 19.5006C16.1657 19.5006 19.5185 16.1495 19.5185 12.0281C19.5185 7.90694 16.1657 4.5559 12.0421 4.5559ZM12.0421 18.5002C8.46923 18.5002 5.56681 15.5943 5.56681 12.0281C5.56681 8.46199 8.46923 5.55621 12.0421 5.55621C15.6186 5.55621 18.5177 8.45378 18.5177 12.0281C18.5177 15.6025 15.6186 18.5002 12.0421 18.5002ZM14.7192 9.79756L11.1114 13.2035L9.37983 11.4231C9.18787 11.2255 8.87179 11.221 8.67436 11.4129C8.47673 11.6049 8.47224 11.9207 8.66419 12.1182L10.7409 14.2489C10.9339 14.4429 11.2456 14.4496 11.4466 14.2638L15.4149 10.5228C15.5113 10.4319 15.5676 10.3065 15.5713 10.1742C15.575 10.042 15.526 9.91361 15.4349 9.81748C15.2418 9.61684 14.9233 9.60804 14.7192 9.79756Z" fill="white"/>
</mask>
<g mask="url(#mask0_747_655)">
<path fill-rule="evenodd" clip-rule="evenodd" d="M13.3757 73.2164C46.5128 73.2164 73.3757 46.3535 73.3757 13.2164C73.3757 -19.9207 46.5128 -46.7836 13.3757 -46.7836C-19.7614 -46.7836 -46.6243 -19.9207 -46.6243 13.2164C-46.6243 46.3535 -19.7614 73.2164 13.3757 73.2164Z" fill="#1890FF"/>
</g>
</svg>
