<?xml version="1.0" encoding="utf-8"?>
<!-- Generator: Adobe Illustrator 20.1.0, SVG Export Plug-In . SVG Version: 6.00 Build 0)  -->
<svg version="1.1" id="Layer_1" xmlns="http://www.w3.org/2000/svg" xmlns:xlink="http://www.w3.org/1999/xlink" x="0px" y="0px"
	 viewBox="0 0 6 6" style="enable-background:new 0 0 6 6;" xml:space="preserve">
<style type="text/css">
	.st0{fill:#CBD0D5;}
</style>
<g>
	<path class="st0" d="M2.7,3.3C2.7,3.3,2.7,3.3,2.7,3.3C2.8,3.4,3,3.5,3.1,3.5s0.3,0,0.4-0.1l2.8-2.8c0.2-0.2,0.2-0.5,0-0.7
		s-0.5-0.2-0.7,0L3.1,2.3L0.4,0C0.2-0.2-0.1-0.2-0.3,0c-0.2,0.2-0.2,0.5,0.1,0.7L2.7,3.3z"/>
	<path class="st0" d="M5.6,2.3L3.1,4.8L0.4,2.5C0.2,2.3-0.1,2.3-0.3,2.5c-0.2,0.2-0.2,0.5,0.1,0.7l3,2.6c0,0,0,0,0,0
		C2.8,5.9,3,6,3.1,6s0.3,0,0.4-0.1L6.3,3c0.2-0.2,0.2-0.5,0-0.7S5.8,2.1,5.6,2.3z"/>
</g>
</svg>
