<?xml version="1.0" encoding="UTF-8"?>
<svg width="25px" height="25px" viewBox="0 0 25 25" version="1.1" xmlns="http://www.w3.org/2000/svg" xmlns:xlink="http://www.w3.org/1999/xlink">
    <!-- Generator: Sketch 52.2 (67145) - http://www.bohemiancoding.com/sketch -->
    <title>ab_icon</title>
    <desc>Created with Sketch.</desc>
    <g id="Page-1" stroke="none" stroke-width="1" fill="none" fill-rule="evenodd">
        <g id="004" transform="translate(-59.000000, -614.000000)">
            <g id="Group-17" transform="translate(0.000000, 30.000000)">
                <g id="ab_icon" transform="translate(59.000000, 584.000000)">
                    <rect id="Rectangle-33" fill="#A3B4C4" x="0" y="0" width="25" height="25"></rect>
                    <path d="M10.2716619,17.0454545 L9.95871804,16.0200639 L9.90545099,16.0200639 C9.55033558,16.4683971 9.19300606,16.7735699 8.8334517,16.9355913 C8.47389735,17.0976127 8.01225424,17.1786222 7.44850852,17.1786222 C6.72496087,17.1786222 6.16011389,16.9833116 5.75395064,16.5926847 C5.34778739,16.2020577 5.14470881,15.6494176 5.14470881,14.9347479 C5.14470881,14.1756887 5.42657744,13.6030737 5.99032315,13.2168857 C6.55406887,12.8306976 7.41299139,12.619851 8.56711648,12.5843395 L9.83886719,12.5443892 L9.83886719,12.1515447 C9.83886719,11.6810168 9.729005,11.3292359 9.50927734,11.0961914 C9.28954968,10.8631469 8.94886594,10.7466264 8.48721591,10.7466264 C8.10990578,10.7466264 7.74813738,10.8021124 7.40189986,10.9130859 C7.05566233,11.0240595 6.72274663,11.1550063 6.40314276,11.3059304 L5.89710582,10.1873224 C6.29661066,9.97869214 6.73383995,9.82000232 7.20880682,9.71124822 C7.68377368,9.60249413 8.13210016,9.5481179 8.55379972,9.5481179 C9.49041661,9.5481179 10.1973076,9.7523062 10.674494,10.1606889 C11.1516803,10.5690716 11.3902699,11.2104892 11.3902699,12.0849609 L11.3902699,17.0454545 L10.2716619,17.0454545 Z M7.94122869,15.9801136 C8.50941335,15.9801136 8.96550787,15.8214238 9.30952592,15.5040394 C9.65354398,15.186655 9.82555043,14.7416577 9.82555043,14.1690341 L9.82555043,13.5298295 L8.88006037,13.5697798 C8.14319589,13.5964135 7.6072016,13.7195923 7.27206143,13.93932 C6.93692126,14.1590476 6.76935369,14.4952925 6.76935369,14.9480646 C6.76935369,15.2765464 6.86700897,15.530672 7.06232244,15.7104492 C7.25763592,15.8902264 7.55060174,15.9801136 7.94122869,15.9801136 Z M17.3702947,9.5481179 C18.2891559,9.5481179 19.0049246,9.8810336 19.5176225,10.546875 C20.0303204,11.2127164 20.2866655,12.1470998 20.2866655,13.3500533 C20.2866655,14.5574457 20.0269912,15.4973777 19.5076349,16.1698775 C18.9882787,16.8423773 18.2669613,17.1786222 17.3436612,17.1786222 C16.4114833,17.1786222 15.6879465,16.843487 15.1730291,16.1732067 L15.066495,16.1732067 L14.7801847,17.0454545 L13.6083097,17.0454545 L13.6083097,6.6850142 L15.1730291,6.6850142 L15.1730291,9.14861506 C15.1730291,9.33061171 15.1641514,9.60138315 15.1463956,9.9609375 C15.1286398,10.3204919 15.1153232,10.549094 15.1064453,10.6467507 L15.1730291,10.6467507 C15.6701907,9.91432517 16.4026052,9.5481179 17.3702947,9.5481179 Z M16.9641335,10.826527 C16.3338037,10.826527 15.8799286,11.0118501 15.6024947,11.3825018 C15.3250608,11.7531535 15.181907,12.3734864 15.1730291,13.2435192 L15.1730291,13.3500533 C15.1730291,14.2467197 15.3150732,14.8959053 15.5991655,15.2976296 C15.8832578,15.6993539 16.3471204,15.9002131 16.990767,15.9002131 C17.5456349,15.9002131 17.9662184,15.6804887 18.2525302,15.2410334 C18.538842,14.8015781 18.6819957,14.1668188 18.6819957,13.3367365 C18.6819957,11.6632551 18.1093807,10.826527 16.9641335,10.826527 Z" id="ab" fill="#FFFFFF"></path>
                </g>
            </g>
        </g>
    </g>
</svg>