<svg id="Layer_1" data-name="Layer 1" xmlns="http://www.w3.org/2000/svg" viewBox="0 0 200.7 42.7"><defs><style>.cls-1{fill:#535c69;}.cls-2{fill:#3bc8f5;}</style></defs><title>AlmexECM</title><path class="cls-1" d="M20.8,11.7a1.27,1.27,0,0,1,.4.9V30.7a1.22,1.22,0,0,1-.4.9,1.39,1.39,0,0,1-1.9,0,1.27,1.27,0,0,1-.4-.9V28a8.64,8.64,0,0,1-3.3,3,9,9,0,0,1-4.8,1.2,10.76,10.76,0,0,1-5.3-1.4,9.27,9.27,0,0,1-3.7-3.9A10.14,10.14,0,0,1,0,21.5,10.73,10.73,0,0,1,1.4,16a10.38,10.38,0,0,1,3.7-3.8,10.76,10.76,0,0,1,5.3-1.4A10.44,10.44,0,0,1,15.3,12a7.59,7.59,0,0,1,3.3,3.1V12.6a1.09,1.09,0,0,1,.4-.9A1.27,1.27,0,0,1,20.8,11.7Zm-6,17.2a8.34,8.34,0,0,0,2.9-3,9.2,9.2,0,0,0,1-4.4,9.35,9.35,0,0,0-1-4.3,8.34,8.34,0,0,0-2.9-3,8.77,8.77,0,0,0-4.2-1.1,8.3,8.3,0,0,0-4.1,1,8.34,8.34,0,0,0-2.9,3,9.07,9.07,0,0,0-1,4.3,9.76,9.76,0,0,0,1,4.4,6.48,6.48,0,0,0,2.9,3,8.77,8.77,0,0,0,4.2,1.1,7.35,7.35,0,0,0,4.1-1Zm13.5,2.6a1.39,1.39,0,0,1-1.9,0,1.27,1.27,0,0,1-.4-.9V3.3a1.61,1.61,0,0,1,.3-.9,1.81,1.81,0,0,1,2,0,1.27,1.27,0,0,1,.4.9V30.6a1.09,1.09,0,0,1-.4.9Zm7.9-.8a1.2,1.2,0,0,1-1.1,1.2H35a1.14,1.14,0,0,1-.8-.3.83.83,0,0,1-.3-.8V12A1,1,0,0,1,35,10.9,1.2,1.2,0,0,1,36.2,12v1.3A8.91,8.91,0,0,1,42,10.9a7.85,7.85,0,0,1,5.8,2.4A8.78,8.78,0,0,1,49,14.8l1.2-1.5a8.09,8.09,0,0,1,11.5,0h0a7.85,7.85,0,0,1,2.4,5.8V30.7a1.2,1.2,0,1,1-2.4,0h0V19a5.8,5.8,0,1,0-11.6,0V30.6A1,1,0,0,1,49,31.7a1.2,1.2,0,0,1-1.2-1.1h0V19A6,6,0,0,0,42,13.1a5.89,5.89,0,0,0-4.2,1.7,5.83,5.83,0,0,0-1.7,4.1Zm48.4-3.4a.91.91,0,0,1,.8.4,1.22,1.22,0,0,1,0,1.6,10.47,10.47,0,0,1-14.2-.5,10.38,10.38,0,0,1,0-14.8A10.44,10.44,0,0,1,86,14a10.2,10.2,0,0,1,3.1,7.4A1.2,1.2,0,0,1,88,22.6H70.5a8.57,8.57,0,0,0,2.4,4.6,7.85,7.85,0,0,0,5.8,2.4,8.11,8.11,0,0,0,5.2-1.9A.67.67,0,0,1,84.6,27.3Zm2.1-7.1a8.76,8.76,0,0,0-2.3-4.6,8.09,8.09,0,0,0-11.5,0h0a9.31,9.31,0,0,0-2.4,4.6Zm13.4,1.1L93,12.8a1.22,1.22,0,0,1,0-1.6,1.15,1.15,0,0,1,1.7,0l6.9,8.3,6.9-8.3a1.23,1.23,0,0,1,.8-.4,1.2,1.2,0,0,1,1.2,1.1h0a1.14,1.14,0,0,1-.3.8L103,21.2l7.2,8.6a1.85,1.85,0,0,1,.2.7,1.2,1.2,0,0,1-1.1,1.2h0a.91.91,0,0,1-.8-.4l-7-8.3-7,8.3a1.23,1.23,0,0,1-.8.4,1.14,1.14,0,0,1-.8-.3.83.83,0,0,1-.3-.8,1.45,1.45,0,0,1,.2-.7Z"/><path class="cls-2" d="M192.1,13a6.65,6.65,0,0,0-5.2-2.1,7.71,7.71,0,0,0-3.7.8,8.26,8.26,0,0,0-2.8,2.1l-.4.5-.4-.5a6.89,6.89,0,0,0-2.4-2.1,8.08,8.08,0,0,0-3.4-.8,9.29,9.29,0,0,0-2.9.5,5.74,5.74,0,0,0-2.3,1.5l-.8.8V12.6a2.1,2.1,0,0,0-.4-1.1,1.5,1.5,0,0,0-2.6,1.1V30.1a1.5,1.5,0,1,0,3,0v-11a5.77,5.77,0,0,1,1.4-4,5.29,5.29,0,0,1,3.8-1.6,4.6,4.6,0,0,1,3.6,1.4,5.26,5.26,0,0,1,1.3,4V30.1a1.56,1.56,0,0,0,1.6,1.5,1.78,1.78,0,0,0,1-.4,1.5,1.5,0,0,0,.4-1.1v-11a5.42,5.42,0,0,1,1.5-4,5.23,5.23,0,0,1,3.7-1.6,4.6,4.6,0,0,1,3.6,1.4,5.26,5.26,0,0,1,1.3,4v1.5a1.5,1.5,0,0,0,.4,1.1,1.19,1.19,0,0,0,1.1.4,1.38,1.38,0,0,0,1.5-1.5V18.9A7.82,7.82,0,0,0,192.1,13Zm-56.8,3.1a9.18,9.18,0,0,0-3.5-3.8,9.66,9.66,0,0,0-5-1.4,9.24,9.24,0,0,0-7.4,3.5l-.9,1.1V3.3a1.75,1.75,0,0,0-.4-1.2,1.71,1.71,0,0,0-2.2,0,1.19,1.19,0,0,0-.4,1.1V21.5a11.14,11.14,0,0,0,1.4,5.4,10.29,10.29,0,0,0,9.2,5.2,11.14,11.14,0,0,0,5.4-1.4,9.91,9.91,0,0,0,3.8-3.8,11.43,11.43,0,0,0,1.4-5.4A13.12,13.12,0,0,0,135.3,16.1Zm-2.7,9.6a7.1,7.1,0,0,1-2.8,2.9,7.59,7.59,0,0,1-10.3-2.5c-.1-.1-.1-.3-.2-.4a8.91,8.91,0,0,1,0-8.2,7.54,7.54,0,0,1,2.7-2.9,7.64,7.64,0,0,1,10.6,2.9,8.3,8.3,0,0,1,1,4.1,8.57,8.57,0,0,1-1,4.1Zm26.9-9.5a9.91,9.91,0,0,0-3.8-3.8,10.76,10.76,0,0,0-10.7,0,9.91,9.91,0,0,0-3.8,3.8,11.43,11.43,0,0,0-1.4,5.4V39.9a1.38,1.38,0,0,0,1.5,1.5,1.46,1.46,0,0,0,1.6-1.3V27.7l.9,1.1a9.56,9.56,0,0,0,12.3,2.1,9.18,9.18,0,0,0,3.5-3.8,11.67,11.67,0,0,0-.1-10.9Zm-2.6,9.5a7.46,7.46,0,0,1-13,.4c-.1-.1-.1-.2-.2-.4a8.91,8.91,0,0,1,0-8.2,7.47,7.47,0,0,1,10.2-3c.1,0,.2.1.3.1a6.86,6.86,0,0,1,2.7,2.9,8.91,8.91,0,0,1,0,8.2Z"/></svg>