<?xml version="1.0" encoding="utf-8"?>
<!-- Generator: Adobe Illustrator 20.1.0, SVG Export Plug-In . SVG Version: 6.00 Build 0)  -->
<svg version="1.2" baseProfile="tiny" id="Layer_1" xmlns="http://www.w3.org/2000/svg" xmlns:xlink="http://www.w3.org/1999/xlink"
	 x="0px" y="0px" viewBox="0 0 36 36" xml:space="preserve">
<path fill="#FFFFFF" d="M27.8,16.2l-0.2,0l-1.4-1.4l0.2-0.2c0.3-0.5,0.4-1,0.4-1.5c0-1.7-1.4-3.1-3.1-3.1c-1.7,0-3.1,1.4-3.1,3.1
	c0,0.6,0.2,1.2,0.5,1.7l0.2,0.2l-3.5,3.5l-0.2-0.1c-1.2-0.7-2.7-0.7-3.9-0.1l-0.2,0.1L12,17l0.2-0.3c0.4-0.5,0.6-1.2,0.6-1.9
	c0-1.9-1.5-3.4-3.4-3.4C7.5,11.4,6,13,6,14.8c0,1.9,1.5,3.4,3.4,3.4c0.4,0,0.7-0.1,1-0.2l0.2-0.1l1.5,1.5L12,19.8
	c-0.4,0.6-0.6,1.4-0.6,2.1c0,2.3,1.8,4.1,4.1,4.1c2.3,0,4.1-1.8,4.1-4.1c0-0.7-0.2-1.4-0.5-2L19,19.6l3.7-3.7l0.2,0.1
	c0.7,0.2,1.2,0.2,1.8,0l0.2-0.1l1.4,1.4l-0.1,0.2c-0.1,0.2-0.1,0.4-0.1,0.6c0,1.1,0.9,2,2,2c1.1,0,2-0.9,2-2
	C30,17,29,16.1,27.8,16.2z M9.3,16.5c-0.9,0-1.7-0.7-1.7-1.7c0-0.9,0.8-1.7,1.7-1.7c0.9,0,1.7,0.7,1.7,1.7
	C11,15.7,10.3,16.5,9.3,16.5z M15.5,24.3c-1.3,0-2.4-1.1-2.4-2.4c0-1.3,1.1-2.4,2.4-2.4c1.3,0,2.4,1.1,2.4,2.4
	C18,23.2,16.9,24.3,15.5,24.3z M23.7,14.4c-0.8,0-1.4-0.6-1.4-1.3s0.6-1.4,1.4-1.4c0.7,0,1.3,0.6,1.3,1.4S24.4,14.4,23.7,14.4z"/>
</svg>
