<?xml version="1.0" encoding="UTF-8"?>
<svg width="11px" height="9px" viewBox="0 0 11 9" version="1.1" xmlns="http://www.w3.org/2000/svg" xmlns:xlink="http://www.w3.org/1999/xlink">
    <!-- Generator: Sketch 51.3 (57544) - http://www.bohemiancoding.com/sketch -->
    <title>blue</title>
    <desc>Created with Sketch.</desc>
    <defs></defs>
    <g id="Page-1" stroke="none" stroke-width="1" fill="none" fill-rule="evenodd">
        <g id="Documents_page" transform="translate(-347.000000, -155.000000)" fill="#2975B7" fill-rule="nonzero">
            <path d="M353.306749,155 C353.347048,155 353.381147,155.034097 353.381147,155.075943 L353.381147,158.243844 C353.376497,158.39263 353.446245,158.538316 353.60744,158.538316 L355.293786,158.541416 C355.368184,158.552265 355.397633,158.618908 355.346484,158.668504 L352.567423,161.402445 C352.545724,161.422593 352.533324,161.439642 352.500775,161.439642 C352.480626,161.439642 352.462026,161.430343 352.448077,161.417944 L349.673665,158.687102 C349.611667,158.626657 349.624067,158.539866 349.707764,158.539866 L351.363111,158.539866 C351.505707,158.539866 351.621953,158.425177 351.621953,158.28259 L351.618853,155.075943 C351.618853,155.034097 351.652952,155 351.694801,155 L353.306749,155 Z M356.498098,162.755468 C356.642243,162.755468 356.75694,162.640778 356.75694,162.498192 L356.75694,160.105218 L358,160.105218 L358,164 L347,164 L347,160.105218 L348.24306,160.105218 L348.24306,162.498192 C348.24306,162.640778 348.359307,162.755468 348.501902,162.755468 L356.498098,162.755468 Z" id="blue"></path>
        </g>
    </g>
</svg>