<?xml version="1.0" encoding="UTF-8"?>
<svg width="13px" height="13px" viewBox="0 0 13 13" version="1.1" xmlns="http://www.w3.org/2000/svg" xmlns:xlink="http://www.w3.org/1999/xlink">
    <!-- Generator: Sketch 51.3 (57544) - http://www.bohemiancoding.com/sketch -->
    <title>Shape</title>
    <desc>Created with Sketch.</desc>
    <defs></defs>
    <g id="Page-2" stroke="none" stroke-width="1" fill="none" fill-rule="evenodd">
        <path d="M12.6513966,11.0175242 L8.13891993,6.5 L12.6513966,1.98247576 C13.0968343,1.5365399 13.0968343,0.78038777 12.6513966,0.334451902 C12.205959,-0.111483967 11.4506518,-0.111483967 11.0052142,0.334451902 L6.49273743,4.85197614 L1.98026071,0.334451902 C1.53482309,-0.111483967 0.779515829,-0.111483967 0.334078212,0.334451902 C-0.111359404,0.78038777 -0.111359404,1.5365399 0.334078212,1.98247576 L4.84655493,6.5 L0.334078212,11.0175242 C-0.111359404,11.4634601 -0.111359404,12.2196122 0.334078212,12.6655481 C0.779515829,13.111484 1.53482309,13.111484 1.98026071,12.6655481 L6.49273743,8.14802386 L11.0052142,12.6655481 C11.4506518,13.111484 12.205959,13.111484 12.6513966,12.6655481 C13.1162011,12.2196122 13.1162011,11.4828486 12.6513966,11.0175242 Z" id="Shape" fill="#000000" fill-rule="nonzero"></path>
    </g>
</svg>