<?xml version="1.0" encoding="UTF-8"?>
<svg width="11px" height="9px" viewBox="0 0 11 9" version="1.1" xmlns="http://www.w3.org/2000/svg" xmlns:xlink="http://www.w3.org/1999/xlink">
    <!-- Generator: Sketch 51.2 (57519) - http://www.bohemiancoding.com/sketch -->
    <title>Combined Shape Copy 5</title>
    <desc>Created with Sketch.</desc>
    <defs></defs>
    <g id="Page-1" stroke="none" stroke-width="1" fill="none" fill-rule="evenodd">
        <g id="Documents_page" transform="translate(-136.000000, -274.000000)" fill="#2975B7" fill-rule="nonzero">
            <path d="M143.453431,274 C143.501057,274 143.541356,274.037885 143.541356,274.084381 L143.541356,277.604271 C143.53586,277.769588 143.618289,277.931462 143.808792,277.931462 L145.801747,277.934906 C145.889672,277.946961 145.924475,278.021009 145.864027,278.076115 L142.579682,281.113828 C142.554037,281.136215 142.539383,281.155158 142.500916,281.155158 C142.477103,281.155158 142.455122,281.144825 142.438636,281.131049 L139.159786,278.09678 C139.086515,278.029619 139.10117,277.933184 139.200085,277.933184 L141.156404,277.933184 C141.324926,277.933184 141.462308,277.805752 141.462308,277.647322 L141.458644,274.084381 C141.458644,274.037885 141.498943,274 141.548401,274 L143.453431,274 Z M147.225025,282.617186 C147.395378,282.617186 147.530929,282.489754 147.530929,282.331324 L147.530929,279.672464 L149,279.672464 L149,284 L136,284 L136,279.672464 L137.469071,279.672464 L137.469071,282.331324 C137.469071,282.489754 137.606453,282.617186 137.774975,282.617186 L147.225025,282.617186 Z" id="Combined-Shape-Copy-5"></path>
        </g>
    </g>
</svg>