<?xml version="1.0" encoding="UTF-8"?>
<svg width="11px" height="9px" viewBox="0 0 11 9" version="1.1" xmlns="http://www.w3.org/2000/svg" xmlns:xlink="http://www.w3.org/1999/xlink">
    <!-- Generator: Sketch 51.2 (57519) - http://www.bohemiancoding.com/sketch -->
    <title>Combined Shape Copy</title>
    <desc>Created with Sketch.</desc>
    <defs></defs>
    <g id="Page-1" stroke="none" stroke-width="1" fill="none" fill-rule="evenodd">
        <g id="Documents_page" transform="translate(-355.000000, -225.000000)" fill="#000000" fill-rule="nonzero">
            <g id="Group" transform="translate(351.000000, 221.000000)">
                <path d="M10.3067493,4 C10.347048,4 10.381147,4.03409678 10.381147,4.07594283 L10.381147,7.24384364 C10.3764971,7.39262958 10.4462449,7.53831583 10.6074398,7.53831583 L12.2937861,7.54141553 C12.3681837,7.55226451 12.3976328,7.61890821 12.3464844,7.66850353 L9.56742285,10.4024453 C9.54572355,10.4225934 9.53332394,10.4396418 9.50077498,10.4396418 C9.48062562,10.4396418 9.46202621,10.4303427 9.44807665,10.4179439 L6.67366493,7.68710177 C6.6116669,7.62665748 6.62406651,7.53986568 6.70776384,7.53986568 L8.36311117,7.53986568 C8.50570664,7.53986568 8.62195294,7.42517651 8.62195294,7.28258998 L8.61885304,4.07594283 C8.61885304,4.03409678 8.65295195,4 8.69480062,4 L10.3067493,4 Z M13.4980978,11.7554675 C13.6422432,11.7554675 13.7569396,11.6407784 13.7569396,11.4981918 L13.7569396,9.10521784 L15,9.10521784 L15,13 L4,13 L4,9.10521784 L5.24306045,9.10521784 L5.24306045,11.4981918 C5.24306045,11.6407784 5.35930675,11.7554675 5.50190221,11.7554675 L13.4980978,11.7554675 Z" id="Combined-Shape-Copy"></path>
            </g>
        </g>
    </g>
</svg>