<?xml version="1.0" encoding="UTF-8"?>
<svg width="12px" height="13px" viewBox="0 0 12 13" version="1.1" xmlns="http://www.w3.org/2000/svg" xmlns:xlink="http://www.w3.org/1999/xlink">
    <!-- Generator: Sketch 52.6 (67491) - http://www.bohemiancoding.com/sketch -->
    <title>Combined Shape</title>
    <desc>Created with Sketch.</desc>
    <g id="Page-1" stroke="none" stroke-width="1" fill="none" fill-rule="evenodd">
        <g id="EditTypeDoc_4_2" transform="translate(-686.000000, -182.000000)" fill="#000000">
            <g id="1" transform="translate(272.000000, 178.000000)">
                <path d="M425.209821,12.9817809 L425.209821,6.22910232 C425.209821,5.98566035 425.012504,5.78827642 424.769063,5.78820946 L418.016786,5.78820946 C417.77329,5.78820946 417.575893,5.98560678 417.575893,6.22910232 L417.575893,7.74410232 L422.183036,7.74410232 C422.774772,7.74410232 423.254464,8.22379428 423.254464,8.81553089 L423.254464,13.4226737 L424.768929,13.4226737 C425.012424,13.4226737 425.209821,13.2252764 425.209821,12.9817809 Z M422.169643,16.1816023 C422.31758,16.1816023 422.4375,16.0616827 422.4375,15.9137452 L422.4375,8.81553089 C422.4375,8.66759339 422.31758,8.54767375 422.169643,8.54767375 L415.071429,8.54767375 C414.923491,8.54767375 414.803571,8.66759339 414.803571,8.81553089 L414.803571,15.9137452 C414.803571,16.0616827 414.923491,16.1816023 415.071429,16.1816023 L422.169643,16.1816023 Z M424.75567,4.98517375 C425.44271,4.98524071 425.999705,5.54206214 426,6.22910232 L426,12.9817809 C426,13.669022 425.442911,14.2261648 424.75567,14.2262452 L423.241071,14.2262452 L423.241071,15.9137452 C423.241071,16.5054818 422.761379,16.9851737 422.169643,16.9851737 L415.071429,16.9851737 C414.479692,16.9851737 414,16.5054818 414,15.9137452 L414,8.81553089 C414,8.22379428 414.479692,7.74410232 415.071429,7.74410232 L416.772321,7.74410232 L416.772321,6.22910232 C416.772616,5.541955 417.329772,4.98509339 418.01692,4.98517375 L424.75567,4.98517375 Z M420.406875,13.1682095 C420.416906,13.1682095 420.426924,13.1685845 420.436929,13.1693345 C420.658205,13.1859014 420.824156,13.3787184 420.807589,13.5999952 C420.792321,13.8110666 420.610714,13.9717809 420.398973,13.9717809 L416.844777,13.9717809 C416.834746,13.9717809 416.824728,13.9714059 416.814723,13.9706559 C416.593446,13.9540889 416.427496,13.761272 416.444063,13.5399952 C416.45933,13.3289237 416.640938,13.1682095 416.852679,13.1682095 L420.406875,13.1682095 Z M420.406875,10.7574952 C420.416906,10.7574952 420.426924,10.7578702 420.436929,10.7586202 C420.658205,10.7751871 420.824156,10.9680041 420.807589,11.1892809 C420.792321,11.4003523 420.610714,11.5610666 420.398973,11.5610666 L416.844777,11.5610666 C416.834746,11.5610666 416.824728,11.5606916 416.814723,11.5599416 C416.593446,11.5433746 416.427496,11.3505577 416.444063,11.1292809 C416.45933,10.9182095 416.640938,10.7574952 416.852679,10.7574952 L420.406875,10.7574952 Z" id="Combined-Shape"></path>
            </g>
        </g>
    </g>
</svg>