<?xml version="1.0" encoding="UTF-8"?>
<svg width="12px" height="12px" viewBox="0 0 12 12" version="1.1" xmlns="http://www.w3.org/2000/svg" xmlns:xlink="http://www.w3.org/1999/xlink">
    <!-- Generator: Sketch 52.6 (67491) - http://www.bohemiancoding.com/sketch -->
    <title>Icon_active</title>
    <desc>Created with Sketch.</desc>
    <g id="Page-1" stroke="none" stroke-width="1" fill="none" fill-rule="evenodd">
        <g id="EditTypeDoc_4_2" transform="translate(-686.000000, -278.000000)" fill="#2975B2">
            <g id="3" transform="translate(273.000000, 271.000000)">
                <path d="M419.923552,13.2359672 C419.942703,12.9805165 419.751351,12.7578475 419.496062,12.7386733 C419.484633,12.7379001 419.47305,12.7374362 419.461467,12.7374362 L415.362934,12.7374362 C415.118764,12.7374362 414.909344,12.9229937 414.891737,13.1666924 C414.872587,13.4221432 415.063938,13.6448121 415.319228,13.6639864 C415.330656,13.6647595 415.342239,13.6652234 415.353822,13.6652234 L419.452355,13.6652234 C419.696525,13.6652234 419.905946,13.479666 419.923552,13.2359672 Z M419.923552,16.0193289 C419.942703,15.7638782 419.751351,15.5412092 419.496062,15.5220349 C419.484633,15.5212618 419.47305,15.5207979 419.461467,15.5207979 L415.362934,15.5207979 C415.118764,15.5207979 414.909344,15.7063553 414.891737,15.9500541 C414.872587,16.2055049 415.063938,16.4281738 415.319228,16.4473481 C415.330656,16.4481212 415.342239,16.4485851 415.353822,16.4485851 L419.452355,16.4485851 C419.696525,16.4485851 419.905946,16.2630277 419.923552,16.0193289 Z M421.494208,10.1860213 C421.664865,10.1860213 421.803089,10.3244163 421.803089,10.4952837 L421.803089,18.6907376 C421.803089,18.8616051 421.664865,19 421.494208,19 L413.30888,19 C413.138224,19 413,18.8616051 413,18.6907376 L413,10.4952837 C413,10.3244163 413.138224,10.1860213 413.30888,10.1860213 L421.494208,10.1860213 Z M425,7.50904593 L425,15.3055513 C425,15.5866708 424.772355,15.8145972 424.491583,15.8145972 L422.745174,15.8145972 L422.745174,10.4952837 C422.745174,9.81212309 422.191969,9.25823411 421.509653,9.25823411 L416.196911,9.25823411 L416.196911,7.50904593 C416.196911,7.2279264 416.424556,7 416.705328,7 L424.491737,7 C424.77251,7.00015463 425,7.2279264 425,7.50904593 Z" id="Icon_active"></path>
            </g>
        </g>
    </g>
</svg>