<?xml version="1.0" encoding="utf-8"?>
<!-- Generator: Adobe Illustrator 20.1.0, SVG Export Plug-In . SVG Version: 6.00 Build 0)  -->
<svg version="1.2" baseProfile="tiny" id="Layer_1" xmlns="http://www.w3.org/2000/svg" xmlns:xlink="http://www.w3.org/1999/xlink"
	 x="0px" y="0px" viewBox="0 0 25 25" xml:space="preserve">
<title>ab_icon</title>
<desc>Created with Sketch.</desc>
<g id="Page-1">
	<g id="_x30_04" transform="translate(-59.000000, -614.000000)">
		<g id="Group-17" transform="translate(0.000000, 30.000000)">
			<g id="ab_icon" transform="translate(59.000000, 584.000000)">
				<g id="Rectangle-33">
					<rect y="0" fill="#A3B4C4" width="25" height="25"/>
				</g>
			</g>
		</g>
	</g>
</g>
<g>
	<path fill="#FFFFFF" d="M8.9,5.9v2.2H6.6V7c0-0.6,0.5-1.1,1.1-1.1H8.9z"/>
</g>
<g>
	<path fill="#FFFFFF" d="M19.4,16.4v1.1c0,0.6-0.5,1.1-1.1,1.1h-6.8l0.2-0.4c0.1-0.2,0.2-0.5,0.2-0.7v-1.1H19.4z"/>
</g>
<g>
	<rect x="11.2" y="7.9" fill="#FFFFFF" width="3.5" height="0.9"/>
	<rect x="11.2" y="10.5" fill="#FFFFFF" width="3.5" height="0.9"/>
	<rect x="11.2" y="13.2" fill="#FFFFFF" width="3.5" height="0.9"/>
	<path fill="#FFFFFF" d="M15.6,5.9H9.2v11.6c0,0.6,0.5,1.1,1.1,1.1s1.1-0.5,1.1-1.1V16h5.2V7C16.8,6.4,16.2,5.9,15.6,5.9z
		 M11.2,11.4v-0.9h3.5v0.9H11.2z M14.8,13.2V14h-3.5v-0.9H14.8z M11.2,8.8V7.9h3.5v0.9H11.2z"/>
</g>
<g>
	<path fill="#A3B4C4" d="M11.2,13.2V14h3.5v-0.9H11.2z M11.2,10.5v0.9h3.5v-0.9H11.2z M11.2,7.9v0.9h3.5V7.9H11.2z"/>
</g>
</svg>
