<svg width="10" height="10" viewBox="0 0 10 10" fill="none" xmlns="http://www.w3.org/2000/svg">
<path d="M8.06932 8.42419L7.52796 6.25627L9.19901 4.81244L9.19973 4.81182C9.74356 4.34011 9.51766 3.33801 8.70004 3.29097L6.58025 3.15632L5.79673 1.05677L5.79674 1.05677L5.79542 1.0533C5.51386 0.315565 4.49455 0.315565 4.21299 1.0533L4.21299 1.0533L4.21192 1.05615L3.42831 3.14746L1.30002 3.28214C0.482349 3.32914 0.256428 4.33128 0.800268 4.80299L0.800264 4.803L0.802103 4.80458L2.46692 6.23452L1.92215 8.42463L1.92213 8.42463L1.92101 8.42931C1.83505 8.78971 1.97991 9.13027 2.23437 9.32566C2.4936 9.52473 2.87475 9.57576 3.20324 9.36059L3.20326 9.36061L3.20817 9.35732L4.99179 8.15856L6.78428 9.35789L6.78426 9.35791L6.78834 9.36059C7.11683 9.57576 7.49798 9.52473 7.75721 9.32566C8.01167 9.13027 8.15654 8.78971 8.07057 8.42931L8.0706 8.42931L8.06932 8.42419Z" fill="#F8BE48" stroke="white"/>
</svg>
