<svg width="21" height="18" viewBox="0 0 21 18" fill="none" xmlns="http://www.w3.org/2000/svg">
<circle cx="10.1999" cy="9" r="8.625" stroke="#4D74B2" stroke-width="0.75"/>
<rect x="0.375" y="5.17498" width="19.65" height="7.65" rx="1.625" fill="white" stroke="#4D74B2" stroke-width="0.75"/>
<path d="M12.9859 8.3222C12.8718 8.3222 12.7713 8.36065 12.6853 8.43987C12.5983 8.51784 12.5555 8.6173 12.5555 8.73823C12.5555 8.85916 12.5983 8.95862 12.6853 9.03659C12.7713 9.11457 12.8718 9.1541 12.9859 9.1541C13.1032 9.1541 13.2016 9.11457 13.2818 9.03426C13.3619 8.9541 13.4014 8.85574 13.4014 8.73823C13.4014 8.62399 13.3608 8.52578 13.2796 8.44438C13.1982 8.36298 13.1 8.3222 12.9859 8.3222Z" fill="#4D74B2"/>
<path d="M12.9858 9.87395C12.8717 9.87395 12.7722 9.91457 12.6876 9.99597C12.6029 10.0774 12.5599 10.1768 12.5599 10.2943C12.5599 10.4051 12.6006 10.5044 12.682 10.5927C12.7666 10.6752 12.8683 10.7158 12.9858 10.7158C13.0999 10.7158 13.1981 10.6752 13.2793 10.5927C13.3607 10.5113 13.4013 10.4142 13.4013 10.2999C13.4013 10.1824 13.3607 10.0819 13.2793 9.99815C13.1981 9.91581 13.0999 9.87395 12.9858 9.87395Z" fill="#4D74B2"/>
<path d="M8.46582 7.89621H8.23657L8.24108 7.45544C8.24108 7.3482 8.20388 7.25995 8.12809 7.191C8.05353 7.11645 7.96669 7.07925 7.86957 7.07925C7.76451 7.07925 7.67642 7.11536 7.60296 7.18882C7.5295 7.26229 7.4923 7.35147 7.4923 7.45544V7.89621H7.37028C7.27549 7.89621 7.19409 7.9278 7.12639 7.99224C7.05744 8.05558 7.02367 8.13465 7.02367 8.22959C7.02367 8.31768 7.05526 8.39565 7.12079 8.46351C7.18631 8.53246 7.26989 8.56639 7.37028 8.56639H7.4979V10.197C7.4979 10.2524 7.50693 10.3022 7.52498 10.3463C7.54195 10.3903 7.56903 10.4299 7.60529 10.466C7.67751 10.5407 7.76451 10.5779 7.86957 10.5779C7.9768 10.5779 8.06599 10.5407 8.13602 10.466C8.20606 10.3903 8.24108 10.301 8.24108 10.197L8.23657 8.57199H8.46131C8.55625 8.57199 8.6364 8.53806 8.70302 8.47145C8.76963 8.40484 8.80356 8.32562 8.80356 8.2341C8.80356 8.13932 8.77088 8.05901 8.70535 7.99457C8.64092 7.92905 8.56076 7.89621 8.46582 7.89621Z" fill="#4D74B2"/>
<path d="M6.45086 7.89621H6.22052L6.22612 7.45544C6.22612 7.3482 6.18783 7.25995 6.11328 7.191C6.03873 7.11645 5.95173 7.07925 5.85461 7.07925C5.74955 7.07925 5.66037 7.11536 5.588 7.18882C5.51469 7.26229 5.47734 7.35147 5.47734 7.45544V7.89621H5.35532C5.26053 7.89621 5.17913 7.9278 5.11034 7.99224C5.04248 8.05558 5.00746 8.13465 5.00746 8.22959C5.00746 8.31768 5.0403 8.39565 5.10583 8.46351C5.17135 8.53246 5.25368 8.56639 5.35532 8.56639H5.48185V10.197C5.48185 10.2524 5.49088 10.3022 5.50893 10.3463C5.52699 10.3903 5.55422 10.4299 5.59033 10.466C5.66146 10.5407 5.74955 10.5779 5.85461 10.5779C5.96184 10.5779 6.05103 10.5407 6.12122 10.466C6.1911 10.3903 6.22612 10.301 6.22612 10.197L6.22052 8.57199H6.44635C6.5402 8.57199 6.62144 8.53806 6.68806 8.47145C6.75467 8.40484 6.7886 8.32562 6.7886 8.2341C6.7886 8.13932 6.75592 8.05901 6.69039 7.99457C6.62487 7.92905 6.5458 7.89621 6.45086 7.89621Z" fill="#4D74B2"/>
<path d="M3.74153 7.84765C3.52908 7.84765 3.33718 7.8973 3.16426 7.99908L3.05594 8.07255V7.08828C3.05594 6.98089 3.01858 6.89264 2.94403 6.82494C2.87181 6.7493 2.78372 6.71194 2.67975 6.71194C2.57485 6.71194 2.48552 6.7493 2.41096 6.82494C2.33532 6.89949 2.29813 6.98758 2.29813 7.08828V10.2062C2.29813 10.3078 2.33532 10.3961 2.41096 10.4706C2.48552 10.5452 2.57485 10.5836 2.67975 10.5836C2.78372 10.5836 2.8729 10.5463 2.94637 10.4728C3.01983 10.3994 3.05594 10.3113 3.05594 10.2062V8.91907C3.05594 8.79814 3.09998 8.69526 3.18807 8.61044C3.27617 8.52577 3.38231 8.4839 3.50651 8.4839C3.62402 8.4839 3.72456 8.52686 3.80923 8.61386C3.89406 8.69977 3.93686 8.80374 3.93686 8.92467V10.2062C3.93686 10.3113 3.97421 10.4006 4.04876 10.4752C4.1244 10.5508 4.21358 10.5882 4.31864 10.5882C4.42603 10.5882 4.51412 10.5508 4.58292 10.4752C4.65747 10.4006 4.69482 10.3113 4.69482 10.2062V8.80141C4.69482 8.52126 4.61793 8.30087 4.46541 8.14149C4.27226 7.94477 4.0318 7.84765 3.74153 7.84765Z" fill="#4D74B2"/>
<path d="M11.7094 8.48843C11.6552 8.39909 11.5886 8.31442 11.5095 8.23536C11.2622 7.98773 10.9663 7.86462 10.6207 7.86462C10.3678 7.86462 10.1372 7.92781 9.92838 8.05559C9.8143 7.77186 9.22925 7.69513 9.22925 8.24423V11.273C9.22925 11.3849 9.26645 11.4741 9.341 11.543C9.41664 11.6177 9.50598 11.6549 9.61103 11.6549C9.71827 11.6549 9.80418 11.6154 9.87422 11.543C9.94753 11.4685 9.98706 11.3825 9.98706 11.2786V10.2277C10.1802 10.3315 10.3914 10.3847 10.6207 10.3847C10.9765 10.3847 11.2747 10.2638 11.5175 10.0209C11.7592 9.77899 11.8801 9.48063 11.8801 9.12468C11.8801 8.972 11.8563 8.82959 11.8077 8.69636C11.7852 8.62523 11.7512 8.55504 11.7094 8.48843ZM10.6082 9.66257C10.3022 9.66257 10.0548 9.41511 10.0548 9.11005C10.0548 8.80484 10.3022 8.55629 10.6082 8.55629C10.9131 8.55629 11.1606 8.80484 11.1606 9.11005C11.1606 9.41511 10.9133 9.66257 10.6082 9.66257Z" fill="#4D74B2"/>
<path d="M17.0338 6.95706L15.7146 10.2365C15.6987 10.275 15.6886 10.3158 15.6886 10.3575C15.6886 10.8582 16.3097 10.9351 16.4599 10.5452L17.7847 7.2576C17.8017 7.2204 17.8107 7.17744 17.8107 7.13231C17.8107 6.61014 17.1771 6.56718 17.0338 6.95706Z" fill="#4D74B2"/>
<path d="M16.0939 7.03502C16.0939 6.51176 15.4592 6.47005 15.3168 6.85868L13.9977 10.1394C13.9808 10.1779 13.9718 10.2185 13.9718 10.2603C13.9718 10.7598 14.5929 10.8367 14.7431 10.4468L16.0679 7.15938C16.0849 7.12202 16.0939 7.07922 16.0939 7.03502Z" fill="#4D74B2"/>
</svg>
