<svg width="20" height="19" viewBox="0 0 20 19" fill="none" xmlns="http://www.w3.org/2000/svg">
<path d="M19.9601 7.80624C19.8907 7.65858 19.7426 7.56412 19.5788 7.56412H18.3333C17.5414 3.26675 13.7678 0 9.24494 0C4.14758 0 0 4.14758 0 9.24494C0 14.3423 4.14716 18.4894 9.24494 18.4894C12.5347 18.4894 15.6027 16.7188 17.2516 13.8695C17.4839 13.4674 17.3469 12.9538 16.9444 12.721C16.5427 12.4883 16.0286 12.6253 15.7967 13.0274C14.447 15.3597 11.9364 16.8091 9.24494 16.8091C5.07438 16.8091 1.68082 13.4159 1.68082 9.24579C1.68082 5.0748 5.07438 1.68167 9.24494 1.68167C12.8372 1.68167 15.8469 4.2012 16.6137 7.56454H15.378C15.2142 7.56454 15.0665 7.65901 14.9967 7.80666C14.9274 7.95432 14.9499 8.12836 15.0546 8.25389L17.1559 10.7751C17.2359 10.8709 17.3537 10.9262 17.4788 10.9262C17.6035 10.9262 17.7218 10.8704 17.8014 10.7751L19.9026 8.25389C20.0073 8.12794 20.0294 7.9539 19.9601 7.80624Z" fill="#4D74B2"/>
<path d="M9.24487 2.10114C8.78063 2.10114 8.40446 2.4773 8.40446 2.94155V8.04103C8.02447 8.3074 7.77426 8.74655 7.77426 9.24526C7.77426 10.0563 8.43425 10.7163 9.2453 10.7163C9.46742 10.7163 9.67678 10.6631 9.86571 10.5742L12.7891 12.2614C12.9218 12.3384 13.0657 12.3746 13.2086 12.3746C13.4988 12.3746 13.7814 12.2239 13.9371 11.9541C14.169 11.5529 14.0316 11.0384 13.629 10.8065L10.7027 9.11675C10.6636 8.6725 10.4325 8.28443 10.0861 8.04188V2.94155C10.0853 2.47772 9.70869 2.10114 9.24487 2.10114ZM9.24487 9.87504C8.89722 9.87504 8.61467 9.59206 8.61467 9.24526C8.61467 8.89803 8.89764 8.61506 9.24487 8.61506C9.5921 8.61506 9.87507 8.89803 9.87507 9.24526C9.87507 9.59206 9.5921 9.87504 9.24487 9.87504Z" fill="#4D74B2"/>
</svg>
