<svg width="22" height="18" viewBox="0 0 22 18" fill="none" xmlns="http://www.w3.org/2000/svg">
<path d="M0 15.6088C0 16.9274 1.07265 18 2.39116 18H2.92258H17.5128H18.5755H19.6827V16.9373H18.5755V14.2804H19.6827V13.8154H20.214H21.0111V12.7527H20.214V10.096H21.0111V9.0333H20.214H20.1476V8.6793V8.14791V8.12511L18.8355 5.66753H20.214V4.2385L16.7464 0H4.51224L1.35723 4.97126C0.817651 5.41028 0.465024 6.07132 0.465024 6.81949C0.465024 8.12981 1.52515 9.19509 2.83277 9.20812C1.95296 9.56151 1.32845 10.4198 1.32845 11.4245C1.32845 12.154 1.66376 12.7999 2.18053 13.2389C0.961841 13.3475 0 14.3624 0 15.6088ZM1.52769 6.81949C1.52769 6.32397 1.8033 5.89595 2.20651 5.66761H18.0441V8.14797H2.85616C2.12371 8.14791 1.52769 7.55181 1.52769 6.81949ZM3.71964 10.096H4.251H19.1513V12.7527H4.251H3.71964C2.98719 12.7527 2.39116 12.157 2.39116 11.4245C2.39119 10.6917 2.98719 10.096 3.71964 10.096ZM2.39119 14.2804H2.9226H17.5129V16.9373H2.92258H2.39116C1.65877 16.9373 1.06277 16.3415 1.06277 15.6088C1.06277 14.8761 1.6588 14.2804 2.39119 14.2804Z" fill="#5F84C5"/>
</svg>
