<svg width="18" height="18" viewBox="0 0 18 18" fill="none" xmlns="http://www.w3.org/2000/svg">
<path d="M2.44425 3.74988C2.6434 3.90182 2.92788 3.86358 3.07988 3.66455C4.41752 1.912 6.44631 0.90697 8.64613 0.90697C10.8459 0.90697 12.8747 1.91206 14.2124 3.66455C14.3016 3.78145 14.4366 3.84285 14.5732 3.84285C14.6691 3.84285 14.7659 3.81255 14.848 3.74988C15.047 3.59788 15.0852 3.31333 14.9333 3.11424C13.4226 1.13509 11.131 0 8.64613 0C6.16122 0 3.86964 1.13509 2.35897 3.11424C2.20703 3.31333 2.24522 3.59788 2.44425 3.74988Z" fill="#5F84C5"/>
<path d="M13.4666 6.16884C13.4666 6.94975 14.1019 7.58514 14.8829 7.58514C15.6638 7.58514 16.2992 6.94975 16.2992 6.16884C16.2992 5.38793 15.6638 4.75253 14.8829 4.75253C14.1019 4.75253 13.4666 5.38787 13.4666 6.16884Z" fill="#5F84C5"/>
<path d="M16.3324 8.05514C16.3291 8.05405 15.9722 7.94453 15.9722 7.94453C15.843 7.90508 15.7027 7.92938 15.5945 8.01035L14.8829 8.54314L14.1713 8.01035C14.0631 7.92932 13.9227 7.90502 13.7936 7.94453C13.7936 7.94453 13.4367 8.05405 13.4335 8.05514C12.8593 8.24659 12.4735 8.7818 12.4735 9.38702V11.5282C12.4735 11.6108 12.4976 11.6916 12.5431 11.7605L13.2611 12.8533V15.7231C13.2611 15.9569 13.4506 16.1463 13.6844 16.1463H16.0815C16.3153 16.1463 16.5047 15.9569 16.5047 15.7231V12.8533L17.2228 11.7605C17.2682 11.6915 17.2924 11.6107 17.2924 11.5282V9.38702C17.2924 8.7818 16.9065 8.24659 16.3324 8.05514Z" fill="#5F84C5"/>
<path d="M2.40941 7.58514C3.19031 7.58514 3.82571 6.94975 3.82571 6.16884C3.82571 5.38793 3.19031 4.75253 2.40941 4.75253C1.6285 4.75253 0.993042 5.38787 0.993042 6.16884C0.993042 6.94981 1.62844 7.58514 2.40941 7.58514Z" fill="#5F84C5"/>
<path d="M3.85885 8.05514C3.85558 8.05405 3.49873 7.94453 3.49873 7.94453C3.36945 7.90508 3.22921 7.92938 3.12097 8.01035L2.40939 8.54314L1.69782 8.01035C1.58964 7.92932 1.44915 7.90502 1.32006 7.94453C1.32006 7.94453 0.963212 8.05405 0.959939 8.05514C0.385758 8.24659 0 8.7818 0 9.38702V11.5282C0 11.6108 0.0241212 11.6916 0.0695757 11.7605L0.787636 12.8533V15.7231C0.787636 15.9569 0.977091 16.1463 1.21085 16.1463H3.60794C3.8417 16.1463 4.03115 15.9569 4.03115 15.7231V12.8533L4.74921 11.7605C4.79461 11.6915 4.81879 11.6107 4.81879 11.5282V9.38702C4.81879 8.7818 4.43297 8.24659 3.85885 8.05514Z" fill="#5F84C5"/>
<path d="M10.4729 4.1728C10.4729 3.16552 9.6534 2.34601 8.64612 2.34601C7.63885 2.34601 6.81934 3.16552 6.81934 4.1728C6.81934 5.18013 7.63885 5.99958 8.64612 5.99958C9.6534 5.99958 10.4729 5.18013 10.4729 4.1728Z" fill="#5F84C5"/>
<path d="M10.6527 6.88492L10.6496 6.88395L10.1282 6.72395C10.046 6.69868 9.95811 6.74219 9.92853 6.82334L8.83217 9.83152C8.76889 10.005 8.5235 10.005 8.46023 9.83152L7.36386 6.82334C7.33999 6.75783 7.27817 6.71674 7.21186 6.71674C7.19617 6.71674 6.64338 6.88371 6.64338 6.88371C5.97732 7.10565 5.53235 7.7231 5.53235 8.42128V11.6035C5.53235 11.635 5.54162 11.6659 5.55895 11.6924L6.70295 13.4332V17.8381C6.70295 17.9275 6.77544 18 6.86489 18H10.4275C10.517 18 10.5894 17.9275 10.5894 17.8381V13.4332L11.7334 11.6924C11.7508 11.6659 11.76 11.635 11.76 11.6035V8.41292C11.76 7.71777 11.3133 7.10134 10.6527 6.88492Z" fill="#5F84C5"/>
<path d="M9.07444 6.82159C9.02917 6.77225 8.96292 6.74741 8.89589 6.74741H8.3962C8.32923 6.74741 8.26299 6.77225 8.21765 6.82159C8.14753 6.89801 8.13735 7.00838 8.18711 7.09462L8.4542 7.49728L8.32917 8.55213L8.57541 9.20716C8.59941 9.27304 8.69256 9.27304 8.71662 9.20716L8.96286 8.55213L8.83783 7.49728L9.10493 7.09462C9.15474 7.00838 9.14456 6.89801 9.07444 6.82159Z" fill="#5F84C5"/>
</svg>
