<svg width="18" height="18" viewBox="0 0 18 18" fill="none" xmlns="http://www.w3.org/2000/svg">
<path d="M13.0762 7.79205V4.3856C13.0762 4.2881 13.0312 4.19801 12.9674 4.12674L9.14832 0.116318C9.07704 0.041336 8.97569 0 8.87448 0H2.81937C1.70151 0 0.808594 0.91159 0.808594 2.02959V13.4794C0.808594 14.5974 1.70151 15.494 2.81937 15.494H7.59897C8.50301 16.9946 10.1463 18 12.0182 18C14.8619 18 17.1841 15.689 17.1841 12.8416C17.188 10.3543 15.4021 8.276 13.0762 7.79205ZM9.24967 1.31685L11.812 4.01413H10.15C9.65479 4.01413 9.24967 3.6053 9.24967 3.11009V1.31685ZM2.81937 14.7437C2.11789 14.7437 1.55896 14.1809 1.55896 13.4794V2.02959C1.55896 1.32426 2.11789 0.750366 2.81937 0.750366H8.4993V3.11009C8.4993 4.02168 9.2384 4.7645 10.15 4.7645H12.3258V7.69441C12.2134 7.6907 12.1233 7.67944 12.0258 7.67944C10.7165 7.67944 9.51224 8.1822 8.60436 8.97006H3.83986C3.63345 8.97006 3.46468 9.13884 3.46468 9.34511C3.46468 9.55151 3.63345 9.72029 3.83986 9.72029H7.90659C7.64017 10.0955 7.41879 10.4707 7.24631 10.8833H3.83986C3.63345 10.8833 3.46468 11.0521 3.46468 11.2585C3.46468 11.4648 3.63345 11.6337 3.83986 11.6337H7.00241C6.90862 12.0089 6.85986 12.4253 6.85986 12.8416C6.85986 13.5169 6.99115 14.1847 7.22749 14.7475H2.81937V14.7437ZM12.0221 17.2535C9.59107 17.2535 7.61394 15.2764 7.61394 12.8454C7.61394 10.4144 9.58722 8.43722 12.0221 8.43722C14.4568 8.43722 16.4301 10.4144 16.4301 12.8454C16.4301 15.2764 14.4531 17.2535 12.0221 17.2535Z" fill="#4D74B2"/>
<path d="M3.8399 7.84082H7.64021C7.84662 7.84082 8.0154 7.67191 8.0154 7.46564C8.0154 7.25923 7.84662 7.09045 7.64021 7.09045H3.8399C3.6335 7.09045 3.46472 7.25923 3.46472 7.46564C3.46472 7.67191 3.6335 7.84082 3.8399 7.84082Z" fill="#4D74B2"/>
<path d="M13.5489 12.4927H12.4009V11.3259C12.4009 11.1197 12.232 10.9508 12.0258 10.9508C11.8194 10.9508 11.6506 11.1197 11.6506 11.3259V12.4927H10.4838C10.2774 12.4927 10.1086 12.6616 10.1086 12.8679C10.1086 13.0743 10.2774 13.2431 10.4838 13.2431H11.6506V14.391C11.6506 14.5974 11.8194 14.7662 12.0258 14.7662C12.232 14.7662 12.4009 14.5974 12.4009 14.391V13.2431H13.5489C13.7553 13.2431 13.9241 13.0743 13.9241 12.8679C13.9241 12.6616 13.7553 12.4927 13.5489 12.4927Z" fill="#4D74B2"/>
</svg>
