<svg width="18" height="18" viewBox="0 0 18 18" fill="none" xmlns="http://www.w3.org/2000/svg">
<path d="M8.33203 12.0234V6.67969H6.32812C5.93976 6.67969 5.625 6.36493 5.625 5.97656C5.625 5.5882 5.93976 5.27344 6.32812 5.27344H11.6719C12.0602 5.27344 12.375 5.5882 12.375 5.97656C12.375 6.36493 12.0602 6.67969 11.6719 6.67969H9.73828V12.0234C9.73828 12.4118 9.42352 12.7266 9.03516 12.7266C8.64679 12.7266 8.33203 12.4118 8.33203 12.0234ZM18 0.703125V3.51562C18 3.90399 17.6852 4.21875 17.2969 4.21875H16.5938V10.0898C16.5938 10.4782 16.279 10.793 15.8906 10.793C15.5023 10.793 15.1875 10.4782 15.1875 10.0898V4.21875H14.4844C14.096 4.21875 13.7812 3.90399 13.7812 3.51562V2.8125H4.21875V3.51562C4.21875 3.90399 3.90399 4.21875 3.51562 4.21875H2.8125V13.7812H3.51562C3.90399 13.7812 4.21875 14.096 4.21875 14.4844V15.1875H9.98438C10.3727 15.1875 10.6875 15.5023 10.6875 15.8906C10.6875 16.279 10.3727 16.5938 9.98438 16.5938H4.21875V17.2969C4.21875 17.6852 3.90399 18 3.51562 18H0.703125C0.314758 18 0 17.6852 0 17.2969V14.4844C0 14.096 0.314758 13.7812 0.703125 13.7812H1.40625V4.21875H0.703125C0.314758 4.21875 0 3.90399 0 3.51562V0.703125C0 0.314758 0.314758 0 0.703125 0H3.51562C3.90399 0 4.21875 0.314758 4.21875 0.703125V1.40625H13.7812V0.703125C13.7812 0.314758 14.096 0 14.4844 0H17.2969C17.6852 0 18 0.314758 18 0.703125ZM2.8125 15.1875H1.40625V16.5938H2.8125V15.1875ZM2.8125 1.40625H1.40625V2.8125H2.8125V1.40625ZM16.5938 1.40625H15.1875V2.8125H16.5938V1.40625ZM17.9648 12.5156V16.2422C17.9648 17.2115 17.1763 18 16.207 18H12.4102C12.1248 18 11.8678 17.8277 11.7596 17.5636C11.6513 17.2996 11.7135 16.9964 11.9166 16.796L16.7682 12.0148C16.97 11.8159 17.2717 11.7576 17.5332 11.867C17.7947 11.9765 17.9648 12.2322 17.9648 12.5156ZM16.5586 14.1957L14.1253 16.5938H16.207C16.4009 16.5938 16.5586 16.4361 16.5586 16.2422V14.1957Z" fill="#4D74B2"/>
</svg>
