<svg width="22" height="19" viewBox="0 0 22 19" fill="none" xmlns="http://www.w3.org/2000/svg">
<path d="M6.10318 14.0829H4.50943V1.79228H0.168808V0.376656H10.4438V1.79228H6.10318V14.0829Z" fill="#5F84C5"/>
<rect y="17.1767" width="18" height="1.2" fill="#5F84C5"/>
<path d="M13.766 3.24547L16.673 4.47951L13.5492 11.838L10.6434 10.6035L13.766 3.24547ZM17.2059 1.27489L15.9095 0.724547C15.4085 0.511858 14.829 0.745955 14.6151 1.24747L14.0879 2.48931L16.995 3.72337L17.6099 2.27483C17.7748 1.88622 17.5945 1.43985 17.2059 1.27489ZM10.7356 13.9515C10.7664 14.1363 10.9809 14.2264 11.1338 14.1167L13.2151 12.6251L10.3093 11.3906L10.7356 13.9515Z" fill="#5F84C5"/>
</svg>
