<svg xmlns="http://www.w3.org/2000/svg" width="20" height="20"><defs><style>.cls-1{fill:#f9bf3a;}.cls-2{fill:#d14967;}</style></defs><title>Ресурс 4</title><g id="Слой_2" data-name="Слой 2"><g id="Layer_1" data-name="Layer 1"><g id="d1"><polygon class="cls-1" points="10 0 10 5 15 5 10 0"/><path class="cls-1" d="M13.1,19.5l-1.9-1.8,2.4-2.4-2.4-2.4,1.9-1.8L15,13V6H10A1.08,1.08,0,0,1,9,5V0H1A1.08,1.08,0,0,0,0,1V19a1.08,1.08,0,0,0,1,1H14a1.08,1.08,0,0,0,1-1V17.6Z"/><polygon class="cls-2" points="15.5 16.1 17.7 18.4 18.6 17.5 16.3 15.3 18.6 13 17.7 12.2 15.5 14.4 13.1 12.1 12.2 12.9 14.6 15.3 12.2 17.7 13.1 18.5 15.5 16.1"/></g></g></g></svg>