<svg xmlns="http://www.w3.org/2000/svg" width="20" height="20"><defs><style>.cls-1{fill:#3e4b59;}.cls-2{fill:#d14967;}</style></defs><title>Ресурс 15</title><g id="Слой_2" data-name="Слой 2"><g id="Layer_1" data-name="Layer 1"><g id="d3"><polygon class="cls-1" points="10 0 10 5 15 5 10 0"/><polygon class="cls-2" points="18.2 7.3 12.3 16.4 12.5 18 13.9 17.4 19.8 8.3 18.2 7.3"/><path class="cls-1" d="M15,6H10A1.08,1.08,0,0,1,9,5V0H1A1.08,1.08,0,0,0,0,1V19a1.08,1.08,0,0,0,1,1H14a1.08,1.08,0,0,0,1-1V17.3l-.5.8-2.8,1.1-.3-3,3.5-5.5V6ZM5.9,16.1,4.5,14.7,2.9,13l1.3-1.3,1.7,1.7,4.6-4.6,1.3,1.3Z"/></g></g></g></svg>