<svg xmlns="http://www.w3.org/2000/svg" width="20" height="20"><defs><style>.cls-1{fill:#3e4b59;}</style></defs><title>Ресурс 7</title><g id="Слой_2" data-name="Слой 2"><g id="Layer_1" data-name="Layer 1"><g id="a2"><polygon class="cls-1" points="10 0 10 5 15 5 10 0"/><path class="cls-1" d="M10,6A1.08,1.08,0,0,1,9,5V0H1A1.08,1.08,0,0,0,0,1V19a1.08,1.08,0,0,0,1,1H14a1.08,1.08,0,0,0,1-1V6Zm1.1,8.5L9.7,15.8,7.4,13.6,5.1,16,3.7,14.7l2.4-2.4L3.7,9.9,5.1,8.6,7.5,11,9.8,8.8l1.4,1.3L8.9,12.3Z"/></g></g></g></svg>