<svg width="20" height="20" xmlns="http://www.w3.org/2000/svg">
<path d="M10 0V5H15L10 0Z" fill="#DBDBDB"/>
<path d="M10 6C9.5 6 9 5.5 9 5V0H1C0.5 0 0 0.5 0 1V19C0 19.5 0.5 20 1 20H14C14.5 20 15 19.5 15 19V6H10Z" fill="#DBDBDB"/>
<path d="M4.03319 1.03215C4.01503 0.467556 4.46779 0 5.03267 0H5.96732C6.5322 0 6.98496 0.467556 6.9668 1.03215L6.59692 12.5321C6.57957 13.0716 6.13721 13.5 5.59744 13.5H5.40256C4.86279 13.5 4.42043 13.0716 4.40308 12.5321L4.03319 1.03215ZM5.5 19.5C5.07895 19.5 4.72368 19.3486 4.43421 19.0458C4.14474 18.7429 4 18.3713 4 17.9308C4 17.4812 4.14474 17.1095 4.43421 16.8159C4.72368 16.5131 5.07895 16.3617 5.5 16.3617C5.92982 16.3617 6.28509 16.5131 6.56579 16.8159C6.85526 17.1095 7 17.4812 7 17.9308C7 18.3713 6.85526 18.7429 6.56579 19.0458C6.28509 19.3486 5.92982 19.5 5.5 19.5Z" fill="#EE0202"/>
</svg> 
