<svg width="27" height="28" viewBox="0 0 27 28" fill="none" xmlns="http://www.w3.org/2000/svg">
<path d="M6.75 0C5.82187 0 5.0625 0.7875 5.0625 1.75V26.25C5.0625 27.2125 5.82187 28 6.75 28H23.625C24.5531 28 25.3125 27.2125 25.3125 26.25V7L18.5625 0H6.75Z" fill="#E2E5E7"/>
<path d="M20.25 7H25.3125L18.5625 0V5.25C18.5625 6.2125 19.3219 7 20.25 7Z" fill="#B0B7BD"/>
<path d="M25.3125 12.25L20.25 7H25.3125V12.25Z" fill="#CAD1D8"/>
<path d="M21.9375 22.75C21.9375 23.2312 21.5578 23.625 21.0938 23.625H2.53125C2.06719 23.625 1.6875 23.2312 1.6875 22.75V14C1.6875 13.5187 2.06719 13.125 2.53125 13.125H21.0938C21.5578 13.125 21.9375 13.5187 21.9375 14V22.75Z" fill="#1890FF"/>
<path d="M4.88177 21.0006C4.65902 21.0006 4.41602 20.8737 4.41602 20.5666V16.5932C4.41602 16.3412 4.65902 16.1592 4.88177 16.1592H6.42667C9.50973 16.1592 9.44139 21.0006 6.48658 21.0006H4.88177ZM5.30702 17.0123V20.1466H6.42667C8.24833 20.1466 8.32848 17.0123 6.42667 17.0123H5.30702Z" fill="white"/>
<path d="M12.0234 21.0703C10.7755 21.1263 9.47949 20.2653 9.47949 18.5511C9.47949 16.83 10.7747 15.9839 12.0234 15.9839C13.2038 16.046 14.4382 16.893 14.4382 18.5511C14.4382 20.2101 13.2038 21.0703 12.0234 21.0703ZM11.9492 16.8939C11.1932 16.8939 10.3705 17.4469 10.3705 18.552C10.3705 19.651 11.194 20.211 11.9492 20.211C12.7254 20.211 13.5548 19.651 13.5548 18.552C13.5548 17.446 12.7254 16.8939 11.9492 16.8939Z" fill="white"/>
<path d="M15.2319 18.544C15.2319 17.1938 16.0487 16.0327 17.6003 16.0327C18.1876 16.0327 18.6533 16.2147 19.1453 16.6557C19.3275 16.8298 19.3478 17.1378 19.1655 17.3338C18.9833 17.501 18.7065 17.4808 18.5445 17.3128C18.2686 17.0118 17.9851 16.9287 17.6003 16.9287C16.5617 16.9287 16.063 17.6917 16.063 18.5448C16.063 19.4128 16.5549 20.21 17.6003 20.21C17.9851 20.21 18.3428 20.0481 18.6533 19.762C18.8618 19.594 19.152 19.6771 19.2735 19.846C19.3815 20 19.4347 20.259 19.1992 20.5031C18.7267 20.959 18.1606 21.05 17.5995 21.05C15.9677 21.05 15.2319 19.8941 15.2319 18.544Z" fill="white"/>
</svg>
