<svg width="27" height="28" viewBox="0 0 27 28" fill="none" xmlns="http://www.w3.org/2000/svg">
<path d="M6.75 0C5.82187 0 5.0625 0.7875 5.0625 1.75V26.25C5.0625 27.2125 5.82187 28 6.75 28H23.625C24.5531 28 25.3125 27.2125 25.3125 26.25V7L18.5625 0H6.75Z" fill="#E2E5E7"/>
<path d="M20.25 7H25.3125L18.5625 0V5.25C18.5625 6.2125 19.3219 7 20.25 7Z" fill="#B0B7BD"/>
<path d="M25.3125 12.25L20.25 7H25.3125V12.25Z" fill="#CAD1D8"/>
<path d="M21.9375 22.75C21.9375 23.2312 21.5578 23.625 21.0938 23.625H2.53125C2.06719 23.625 1.6875 23.2312 1.6875 22.75V14C1.6875 13.5187 2.06719 13.125 2.53125 13.125H21.0938C21.5578 13.125 21.9375 13.5187 21.9375 14V22.75Z" fill="#1BBA94"/>
<path d="M7.48635 16.5782C7.48635 15.9902 8.37735 15.9902 8.37735 16.5782V19.3415C8.37735 20.4405 7.8711 21.1055 6.70419 21.1055C6.13044 21.1055 5.65204 20.9436 5.23354 20.3845C4.88929 19.9575 5.53729 19.3423 5.88829 19.7895C6.17179 20.1535 6.47554 20.2375 6.77169 20.2235C7.14885 20.2095 7.48044 20.0336 7.48719 19.3415V16.5782H7.48635Z" fill="white"/>
<path d="M9.5625 16.5787C9.5625 16.3477 9.738 16.0957 10.0215 16.0957H11.5799C12.4574 16.0957 13.2472 16.7047 13.2472 17.872C13.2472 18.978 12.4574 19.594 11.5799 19.594H10.4535V20.518C10.4535 20.826 10.2645 21.0001 10.0215 21.0001C9.79875 21.0001 9.5625 20.826 9.5625 20.518V16.5787ZM10.4535 16.9768V18.7198H11.5799C12.0322 18.7198 12.3899 18.306 12.3899 17.872C12.3899 17.3828 12.0322 16.9768 11.5799 16.9768H10.4535Z" fill="white"/>
<path d="M18.0655 20.4617C17.5862 20.8747 16.999 21.0497 16.4058 21.0497C14.9883 21.0497 13.9834 20.2106 13.9834 18.5446C13.9834 17.1323 15.0431 16.0342 16.4657 16.0342C16.999 16.0342 17.5854 16.2223 18.0039 16.6493C18.4148 17.0684 17.8216 17.6914 17.4175 17.3213C17.1677 17.0693 16.8167 16.8803 16.4657 16.8803C15.6498 16.8803 14.8609 17.5584 14.8609 18.5446C14.8609 19.5806 15.5216 20.2106 16.4058 20.2106C16.8167 20.2106 17.1677 20.0837 17.4175 19.8956V19.0354H16.4058C15.8051 19.0354 15.8658 18.1814 16.4058 18.1814H17.755C18.0047 18.1814 18.2334 18.3774 18.2334 18.5944V20.0846C18.2334 20.2106 18.1802 20.3278 18.0655 20.4617Z" fill="white"/>
</svg>
