<svg width="27" height="28" viewBox="0 0 27 28" fill="none" xmlns="http://www.w3.org/2000/svg">
<path d="M6.75 0C5.82187 0 5.0625 0.7875 5.0625 1.75V26.25C5.0625 27.2125 5.82187 28 6.75 28H23.625C24.5531 28 25.3125 27.2125 25.3125 26.25V7L18.5625 0H6.75Z" fill="#E2E5E7"/>
<path d="M20.25 7H25.3125L18.5625 0V5.25C18.5625 6.2125 19.3219 7 20.25 7Z" fill="#B0B7BD"/>
<path d="M25.3125 12.25L20.25 7H25.3125V12.25Z" fill="#CAD1D8"/>
<path d="M21.9375 22.75C21.9375 23.2312 21.5578 23.625 21.0938 23.625H2.53125C2.06719 23.625 1.6875 23.2312 1.6875 22.75V14C1.6875 13.5187 2.06719 13.125 2.53125 13.125H21.0938C21.5578 13.125 21.9375 13.5187 21.9375 14V22.75Z" fill="#F5222D"/>
<path d="M5.36523 16.5787C5.36523 16.3477 5.54073 16.0957 5.82339 16.0957H7.3818C8.2593 16.0957 9.04905 16.7047 9.04905 17.872C9.04905 18.978 8.2593 19.594 7.3818 19.594H6.25539V20.518C6.25539 20.826 6.06639 21.0001 5.82339 21.0001C5.60064 21.0001 5.36523 20.826 5.36523 20.518V16.5787ZM6.25539 16.9768V18.7198H7.3818C7.83405 18.7198 8.1918 18.306 8.1918 17.872C8.1918 17.3828 7.83405 16.9768 7.3818 16.9768H6.25539Z" fill="white"/>
<path d="M10.3705 21.0001C10.1478 21.0001 9.90479 20.8741 9.90479 20.5669V16.5927C9.90479 16.3416 10.1478 16.1587 10.3705 16.1587H11.9154C14.9985 16.1587 14.931 21.0001 11.9762 21.0001H10.3705ZM10.7958 17.0127V20.1469H11.9154C13.7371 20.1469 13.8181 17.0127 11.9154 17.0127H10.7958Z" fill="white"/>
<path d="M16.0242 17.0686V18.1807H17.7446C17.9876 18.1807 18.2306 18.4327 18.2306 18.6768C18.2306 18.9078 17.9876 19.0968 17.7446 19.0968H16.0242V20.566C16.0242 20.811 15.8563 20.9991 15.62 20.9991C15.323 20.9991 15.1416 20.811 15.1416 20.566V16.5917C15.1416 16.3406 15.3239 16.1577 15.62 16.1577H17.9884C18.2854 16.1577 18.4609 16.3406 18.4609 16.5917C18.4609 16.8157 18.2854 17.0677 17.9884 17.0677H16.0242V17.0686Z" fill="white"/>
</svg>
