<svg width="27" height="28" viewBox="0 0 27 28" fill="none" xmlns="http://www.w3.org/2000/svg">
<path d="M6.75 0C5.82187 0 5.0625 0.7875 5.0625 1.75V26.25C5.0625 27.2125 5.82187 28 6.75 28H23.625C24.5531 28 25.3125 27.2125 25.3125 26.25V7L18.5625 0H6.75Z" fill="#E2E5E7"/>
<path d="M20.25 7H25.3125L18.5625 0V5.25C18.5625 6.2125 19.3219 7 20.25 7Z" fill="#B0B7BD"/>
<path d="M25.3125 12.25L20.25 7H25.3125V12.25Z" fill="#CAD1D8"/>
<path d="M21.9375 22.75C21.9375 23.2312 21.5578 23.625 21.0938 23.625H2.53125C2.06719 23.625 1.6875 23.2312 1.6875 22.75V14C1.6875 13.5187 2.06719 13.125 2.53125 13.125H21.0938C21.5578 13.125 21.9375 13.5187 21.9375 14V22.75Z" fill="#AA4CBA"/>
<path d="M4.89453 16.5791C4.89453 16.3481 5.06919 16.0952 5.35269 16.0952H6.91194C7.78859 16.0952 8.57834 16.7042 8.57834 17.8723C8.57834 18.9783 7.78859 19.5935 6.91194 19.5935H5.78384V20.5175C5.78384 20.8263 5.59653 21.0005 5.35269 21.0005C5.12994 21.0005 4.89453 20.8263 4.89453 20.5175V16.5791ZM5.78384 16.9772V18.7193H6.91109C7.3625 18.7193 7.72025 18.3063 7.72025 17.8723C7.72025 17.3823 7.3625 16.9772 6.91109 16.9772H5.78384Z" fill="white"/>
<path d="M9.43786 16.6491C9.43786 16.3962 9.49186 16.1521 9.84286 16.1521C10.085 16.1521 10.1399 16.2151 10.3213 16.3962L12.5538 19.2933V16.5791C12.5538 16.3481 12.7487 16.0952 12.9791 16.0952C13.2221 16.0952 13.4575 16.3481 13.4575 16.5791V20.5175C13.4575 20.8263 13.2752 20.9436 13.0997 21.0005C12.8643 21.0005 12.7487 20.9445 12.5538 20.7563L10.3213 17.8172V20.5183C10.3213 20.8272 10.139 21.0013 9.89601 21.0013C9.65301 21.0013 9.43701 20.8272 9.43701 20.5183V16.6491H9.43786Z" fill="white"/>
<path d="M18.5327 20.4621C18.0535 20.8742 17.4662 21.0501 16.8731 21.0501C15.4556 21.0501 14.4507 20.2101 14.4507 18.5449C14.4507 17.1318 15.5104 16.0337 16.933 16.0337C17.4662 16.0337 18.0526 16.2227 18.4711 16.6497C18.8829 17.0688 18.2889 17.6918 17.8847 17.3217C17.635 17.0688 17.284 16.8807 16.933 16.8807C16.1171 16.8807 15.3282 17.5588 15.3282 18.5449C15.3282 19.5809 15.9888 20.2101 16.8731 20.2101C17.284 20.2101 17.635 20.0841 17.8847 19.8951V19.0358H16.8731C16.2723 19.0358 16.3331 18.1809 16.8731 18.1809H18.2222C18.472 18.1809 18.7006 18.3778 18.7006 18.5948V20.0849C18.7006 20.2101 18.6475 20.3282 18.5327 20.4621Z" fill="white"/>
</svg>
