<svg width="27" height="28" viewBox="0 0 27 28" fill="none" xmlns="http://www.w3.org/2000/svg">
<path d="M6.75 0C5.82187 0 5.0625 0.7875 5.0625 1.75V26.25C5.0625 27.2125 5.82187 28 6.75 28H23.625C24.5531 28 25.3125 27.2125 25.3125 26.25V7L18.5625 0H6.75Z" fill="#E2E5E7"/>
<path d="M20.25 7H25.3125L18.5625 0V5.25C18.5625 6.2125 19.3219 7 20.25 7Z" fill="#B0B7BD"/>
<path d="M25.3125 12.25L20.25 7H25.3125V12.25Z" fill="#CAD1D8"/>
<path d="M21.9375 22.75C21.9375 23.2312 21.5578 23.625 21.0938 23.625H2.53125C2.06719 23.625 1.6875 23.2312 1.6875 22.75V14C1.6875 13.5187 2.06719 13.125 2.53125 13.125H21.0938C21.5578 13.125 21.9375 13.5187 21.9375 14V22.75Z" fill="#D14967"/>
<path d="M5.56055 16.5787C5.56055 16.3477 5.73605 16.0957 6.0187 16.0957H7.57711C8.45461 16.0957 9.24436 16.7047 9.24436 17.872C9.24436 18.978 8.45461 19.594 7.57711 19.594H6.4507V20.518C6.4507 20.826 6.26255 21.0001 6.01955 21.0001C5.7968 21.0001 5.56139 20.826 5.56139 20.518V16.5787H5.56055ZM6.4507 16.9768V18.7198H7.57711C8.02936 18.7198 8.38711 18.306 8.38711 17.872C8.38711 17.3828 8.02936 16.9768 7.57711 16.9768H6.4507Z" fill="white"/>
<path d="M10.1035 16.5787C10.1035 16.3477 10.279 16.0957 10.5625 16.0957H12.1209C12.9984 16.0957 13.7882 16.7047 13.7882 17.872C13.7882 18.978 12.9984 19.594 12.1209 19.594H10.9945V20.518C10.9945 20.826 10.8055 21.0001 10.5625 21.0001C10.3398 21.0001 10.1035 20.826 10.1035 20.518V16.5787ZM10.9937 16.9768V18.7198H12.1201C12.5723 18.7198 12.9301 18.306 12.9301 17.872C12.9301 17.3828 12.5723 16.9768 12.1201 16.9768H10.9937Z" fill="white"/>
<path d="M15.9091 17.0338H14.7295C14.1422 17.0338 14.1422 16.1387 14.7295 16.1387H17.9197C18.5205 16.1387 18.5205 17.0338 17.9197 17.0338H16.8001V20.5671C16.8001 21.1752 15.9091 21.1901 15.9091 20.5671V17.0338Z" fill="white"/>
</svg>
