<svg width="24" height="24" viewBox="0 0 24 24" fill="none" xmlns="http://www.w3.org/2000/svg">
<mask id="mask0" mask-type="alpha" maskUnits="userSpaceOnUse" x="3" y="0" width="18" height="24">
<path fill-rule="evenodd" clip-rule="evenodd" d="M20.5219 7.07344L14.0109 0.499219C13.9055 0.39375 13.7906 0.304688 13.6664 0.229687C13.6336 0.210938 13.6008 0.192188 13.5656 0.175781C13.5494 0.166784 13.5319 0.159168 13.515 0.151872L13.5 0.145313C13.2891 0.0515625 13.057 0 12.8203 0H4.73438C3.80156 0 3.02344 0.754687 3.02344 1.6875V22.3125C3.02344 23.2453 3.80156 24 4.73438 24H19.3359C20.2687 24 21 23.2453 21 22.3125V8.26172C21 7.81641 20.8359 7.38984 20.5219 7.07344ZM13 1L20 8H13V1ZM4 23H20V8.8H13.862C12.8398 8.8 11.9872 7.995 11.9872 7V1H4V23Z" fill="white"/>
</mask>
<g mask="url(#mask0)">
<path fill-rule="evenodd" clip-rule="evenodd" d="M11.2969 73.4554C44.434 73.4554 71.2969 46.5925 71.2969 13.4554C71.2969 -19.6816 44.434 -46.5446 11.2969 -46.5446C-21.8402 -46.5446 -48.7031 -19.6816 -48.7031 13.4554C-48.7031 46.5925 -21.8402 73.4554 11.2969 73.4554Z" fill="#1890FF"/>
</g>
</svg>
