<svg width="27" height="28" viewBox="0 0 27 28" fill="none" xmlns="http://www.w3.org/2000/svg">
<path d="M6.75 0C5.82187 0 5.0625 0.7875 5.0625 1.75V26.25C5.0625 27.2125 5.82187 28 6.75 28H23.625C24.5531 28 25.3125 27.2125 25.3125 26.25V7L18.5625 0H6.75Z" fill="#E2E5E7"/>
<path d="M20.25 7H25.3125L18.5625 0V5.25C18.5625 6.2125 19.3219 7 20.25 7Z" fill="#B0B7BD"/>
<path d="M25.3125 12.25L20.25 7H25.3125V12.25Z" fill="#CAD1D8"/>
<path d="M21.9375 22.75C21.9375 23.2312 21.5578 23.625 21.0938 23.625H2.53125C2.06719 23.625 1.6875 23.2312 1.6875 22.75V14C1.6875 13.5187 2.06719 13.125 2.53125 13.125H21.0938C21.5578 13.125 21.9375 13.5187 21.9375 14V22.75Z" fill="#52C41A"/>
<path d="M7.61128 17.8387L8.78494 16.3136C9.13594 15.8376 9.81769 16.4457 9.43294 16.9007C9.02878 17.3977 8.60353 17.9367 8.19853 18.4888L9.57469 20.266C9.94594 20.791 9.20428 21.2941 8.83978 20.7761L7.59778 19.125L6.37688 20.812C6.03263 21.3221 5.26988 20.749 5.65463 20.273L7.01053 18.4888C6.58528 17.9358 6.17353 17.3977 5.76263 16.9007C5.33822 16.3757 6.12713 15.8376 6.43763 16.3285L7.61128 17.8387Z" fill="white"/>
<path d="M10.4072 16.5789C10.4072 16.3479 10.5962 16.1519 10.8325 16.1519C11.0485 16.1519 11.2307 16.3487 11.2307 16.5789V20.0841H13.0659C13.7265 20.0841 13.7409 21.0002 13.0659 21.0002H10.8333C10.5971 21.0002 10.4081 20.8261 10.4081 20.5741V16.5789H10.4072Z" fill="white"/>
<path d="M14.3454 17.2088C14.5007 15.8508 16.4767 15.6067 17.4082 16.3487C17.8672 16.7328 17.3812 17.3418 16.9762 17.0338C16.4767 16.7057 15.3436 16.5517 15.2018 17.2779C15.0196 18.4259 17.9541 17.7688 17.9069 19.6299C17.8596 21.4071 15.3773 21.4482 14.4458 20.6511C14.2222 20.4621 14.2298 20.1549 14.3513 19.9651C14.5268 19.7839 14.7217 19.7209 14.9521 19.9169C15.5047 20.3081 16.929 20.6021 17.0294 19.6081C16.9425 18.5738 14.1362 19.1959 14.3454 17.2088Z" fill="white"/>
</svg>
